<mxfile host="app.diagrams.net" agent="Mozilla/5.0 (Windows NT 10.0; Win64; x64) AppleWebKit/537.36 (KHTML, like Gecko) Chrome/137.0.0.0 Safari/537.36" version="27.1.6" pages="2">
  <diagram name="Page-1" id="PFjaiTl8708SlmjzLa_B">
    <mxGraphModel dx="1389" dy="703" grid="0" gridSize="10" guides="0" tooltips="1" connect="0" arrows="0" fold="1" page="0" pageScale="1" pageWidth="850" pageHeight="1100" math="0" shadow="0">
      <root>
        <mxCell id="0" />
        <mxCell id="1" parent="0" />
        <mxCell id="2MBpw54hLFLi0oUYaQmh-64" value="AWS Cloud" style="points=[[0,0],[0.25,0],[0.5,0],[0.75,0],[1,0],[1,0.25],[1,0.5],[1,0.75],[1,1],[0.75,1],[0.5,1],[0.25,1],[0,1],[0,0.75],[0,0.5],[0,0.25]];outlineConnect=0;gradientColor=none;html=1;whiteSpace=wrap;fontSize=12;fontStyle=0;container=1;pointerEvents=0;collapsible=0;recursiveResize=0;shape=mxgraph.aws4.group;grIcon=mxgraph.aws4.group_aws_cloud_alt;strokeColor=#232F3E;fillColor=none;verticalAlign=top;align=left;spacingLeft=30;fontColor=#232F3E;dashed=0;" parent="1" vertex="1">
          <mxGeometry x="106" y="210" width="1354" height="570" as="geometry" />
        </mxCell>
        <mxCell id="e6ng4XpAjZzhfiE_HAUn-4" value="VPC" style="points=[[0,0],[0.25,0],[0.5,0],[0.75,0],[1,0],[1,0.25],[1,0.5],[1,0.75],[1,1],[0.75,1],[0.5,1],[0.25,1],[0,1],[0,0.75],[0,0.5],[0,0.25]];outlineConnect=0;gradientColor=none;html=1;whiteSpace=wrap;fontSize=12;fontStyle=0;container=1;pointerEvents=0;collapsible=0;recursiveResize=0;shape=mxgraph.aws4.group;grIcon=mxgraph.aws4.group_vpc2;strokeColor=#8C4FFF;fillColor=none;verticalAlign=top;align=left;spacingLeft=30;fontColor=#AAB7B8;dashed=0;" parent="2MBpw54hLFLi0oUYaQmh-64" vertex="1">
          <mxGeometry x="59" y="54" width="1230" height="480" as="geometry" />
        </mxCell>
        <mxCell id="2MBpw54hLFLi0oUYaQmh-3" value="Public subnet" style="points=[[0,0],[0.25,0],[0.5,0],[0.75,0],[1,0],[1,0.25],[1,0.5],[1,0.75],[1,1],[0.75,1],[0.5,1],[0.25,1],[0,1],[0,0.75],[0,0.5],[0,0.25]];outlineConnect=0;html=1;whiteSpace=wrap;fontSize=12;fontStyle=0;container=1;pointerEvents=0;collapsible=0;recursiveResize=0;shape=mxgraph.aws4.group;grIcon=mxgraph.aws4.group_security_group;grStroke=0;verticalAlign=top;align=left;spacingLeft=30;strokeWidth=1;fillColor=default;strokeColor=light-dark(#000000,#EDEDED);noLabel=0;perimeterSpacing=0;fixDash=0;strokeOpacity=100;" parent="e6ng4XpAjZzhfiE_HAUn-4" vertex="1">
          <mxGeometry x="20" y="40" width="260" height="404" as="geometry" />
        </mxCell>
        <mxCell id="2MBpw54hLFLi0oUYaQmh-15" value="EKS node" style="points=[[0,0],[0.25,0],[0.5,0],[0.75,0],[1,0],[1,0.25],[1,0.5],[1,0.75],[1,1],[0.75,1],[0.5,1],[0.25,1],[0,1],[0,0.75],[0,0.5],[0,0.25]];outlineConnect=0;gradientColor=none;html=1;whiteSpace=wrap;fontSize=12;fontStyle=0;container=1;pointerEvents=0;collapsible=0;recursiveResize=0;grIcon=mxgraph.aws4.group_aws_step_functions_workflow;strokeColor=#CD2264;fillColor=none;verticalAlign=top;align=left;spacingLeft=30;fontColor=#CD2264;dashed=0;" parent="2MBpw54hLFLi0oUYaQmh-3" vertex="1">
          <mxGeometry x="18" y="40" width="220" height="345" as="geometry" />
        </mxCell>
        <mxCell id="e6ng4XpAjZzhfiE_HAUn-3" value="EC2 instance" style="points=[[0,0],[0.25,0],[0.5,0],[0.75,0],[1,0],[1,0.25],[1,0.5],[1,0.75],[1,1],[0.75,1],[0.5,1],[0.25,1],[0,1],[0,0.75],[0,0.5],[0,0.25]];outlineConnect=0;gradientColor=none;html=1;whiteSpace=wrap;fontSize=12;fontStyle=0;container=1;pointerEvents=0;collapsible=0;recursiveResize=0;shape=mxgraph.aws4.group;grIcon=mxgraph.aws4.group_ec2_instance_contents;strokeColor=#D86613;fillColor=none;verticalAlign=top;align=left;spacingLeft=30;fontColor=#D86613;dashed=0;" parent="2MBpw54hLFLi0oUYaQmh-15" vertex="1">
          <mxGeometry x="30" y="35" width="165" height="285" as="geometry" />
        </mxCell>
        <mxCell id="e6ng4XpAjZzhfiE_HAUn-15" value="pod 2" style="swimlane;" parent="e6ng4XpAjZzhfiE_HAUn-3" vertex="1">
          <mxGeometry x="42.5" y="175" width="80" height="60" as="geometry" />
        </mxCell>
        <mxCell id="e6ng4XpAjZzhfiE_HAUn-16" value="frontend" style="text;strokeColor=none;align=center;fillColor=none;html=1;verticalAlign=middle;whiteSpace=wrap;rounded=0;" parent="e6ng4XpAjZzhfiE_HAUn-15" vertex="1">
          <mxGeometry x="10" y="30" width="60" height="30" as="geometry" />
        </mxCell>
        <mxCell id="e6ng4XpAjZzhfiE_HAUn-14" value="pod 1" style="swimlane;" parent="2MBpw54hLFLi0oUYaQmh-15" vertex="1">
          <mxGeometry x="72.5" y="95" width="80" height="60" as="geometry" />
        </mxCell>
        <mxCell id="e6ng4XpAjZzhfiE_HAUn-13" value="frontend" style="text;strokeColor=none;align=center;fillColor=none;html=1;verticalAlign=middle;whiteSpace=wrap;rounded=0;" parent="e6ng4XpAjZzhfiE_HAUn-14" vertex="1">
          <mxGeometry x="10" y="30" width="60" height="30" as="geometry" />
        </mxCell>
        <mxCell id="e6ng4XpAjZzhfiE_HAUn-11" value="&lt;b&gt;&lt;font style=&quot;font-size: 18px;&quot;&gt;Frontend&lt;/font&gt;&lt;/b&gt;" style="text;strokeColor=none;align=center;fillColor=none;html=1;verticalAlign=middle;whiteSpace=wrap;rounded=0;" parent="2MBpw54hLFLi0oUYaQmh-3" vertex="1">
          <mxGeometry x="105" width="100" height="30" as="geometry" />
        </mxCell>
        <mxCell id="ucJ11xXuO4QCmthSA1vi-3" value="" style="rounded=0;whiteSpace=wrap;html=1;dashed=1;pointerEvents=0;strokeColor=light-dark(#000000, #ff89c2);align=left;verticalAlign=top;spacingLeft=30;fontFamily=Helvetica;fontSize=12;fontColor=#CD2264;fontStyle=0;fillColor=none;gradientColor=none;dashPattern=8 8;" vertex="1" parent="2MBpw54hLFLi0oUYaQmh-3">
          <mxGeometry x="1" y="1" width="257" height="403" as="geometry" />
        </mxCell>
        <mxCell id="2MBpw54hLFLi0oUYaQmh-5" value="Private subnet" style="points=[[0,0],[0.25,0],[0.5,0],[0.75,0],[1,0],[1,0.25],[1,0.5],[1,0.75],[1,1],[0.75,1],[0.5,1],[0.25,1],[0,1],[0,0.75],[0,0.5],[0,0.25]];outlineConnect=0;html=1;whiteSpace=wrap;fontSize=12;fontStyle=0;container=1;pointerEvents=0;collapsible=0;recursiveResize=0;shape=mxgraph.aws4.group;grIcon=mxgraph.aws4.group_security_group;grStroke=0;verticalAlign=top;align=left;spacingLeft=30;" parent="e6ng4XpAjZzhfiE_HAUn-4" vertex="1">
          <mxGeometry x="354" y="39" width="520" height="402.5" as="geometry" />
        </mxCell>
        <mxCell id="2MBpw54hLFLi0oUYaQmh-60" value="&lt;span style=&quot;font-size: 18px;&quot;&gt;&lt;b&gt;Backend&lt;/b&gt;&lt;/span&gt;" style="text;strokeColor=none;align=center;fillColor=none;html=1;verticalAlign=middle;whiteSpace=wrap;rounded=0;" parent="2MBpw54hLFLi0oUYaQmh-5" vertex="1">
          <mxGeometry x="205" width="100" height="30" as="geometry" />
        </mxCell>
        <mxCell id="2MBpw54hLFLi0oUYaQmh-8" value="Private subnet" style="points=[[0,0],[0.25,0],[0.5,0],[0.75,0],[1,0],[1,0.25],[1,0.5],[1,0.75],[1,1],[0.75,1],[0.5,1],[0.25,1],[0,1],[0,0.75],[0,0.5],[0,0.25]];outlineConnect=0;html=1;whiteSpace=wrap;fontSize=12;fontStyle=0;container=1;pointerEvents=0;collapsible=0;recursiveResize=0;shape=mxgraph.aws4.group;grIcon=mxgraph.aws4.group_security_group;grStroke=0;verticalAlign=top;align=left;spacingLeft=30;dashed=0;" parent="e6ng4XpAjZzhfiE_HAUn-4" vertex="1">
          <mxGeometry x="940" y="40" width="260" height="400" as="geometry" />
        </mxCell>
        <mxCell id="e6ng4XpAjZzhfiE_HAUn-2" value="EC2 instance" style="points=[[0,0],[0.25,0],[0.5,0],[0.75,0],[1,0],[1,0.25],[1,0.5],[1,0.75],[1,1],[0.75,1],[0.5,1],[0.25,1],[0,1],[0,0.75],[0,0.5],[0,0.25]];outlineConnect=0;gradientColor=none;html=1;whiteSpace=wrap;fontSize=12;fontStyle=0;container=1;pointerEvents=0;collapsible=0;recursiveResize=0;shape=mxgraph.aws4.group;grIcon=mxgraph.aws4.group_ec2_instance_contents;strokeColor=#D86613;fillColor=none;verticalAlign=top;align=left;spacingLeft=30;fontColor=#D86613;dashed=0;" parent="2MBpw54hLFLi0oUYaQmh-8" vertex="1">
          <mxGeometry x="40" y="80" width="180" height="280" as="geometry" />
        </mxCell>
        <mxCell id="e6ng4XpAjZzhfiE_HAUn-25" value="pod" style="swimlane;" parent="e6ng4XpAjZzhfiE_HAUn-2" vertex="1">
          <mxGeometry x="40" y="75" width="110" height="110" as="geometry" />
        </mxCell>
        <mxCell id="e6ng4XpAjZzhfiE_HAUn-26" value="&lt;font style=&quot;font-size: 14px;&quot;&gt;redis-cart&lt;/font&gt;" style="text;strokeColor=none;align=center;fillColor=none;html=1;verticalAlign=middle;whiteSpace=wrap;rounded=0;" parent="e6ng4XpAjZzhfiE_HAUn-25" vertex="1">
          <mxGeometry x="10" y="30" width="90" height="60" as="geometry" />
        </mxCell>
        <mxCell id="2MBpw54hLFLi0oUYaQmh-23" value="EKS node" style="points=[[0,0],[0.25,0],[0.5,0],[0.75,0],[1,0],[1,0.25],[1,0.5],[1,0.75],[1,1],[0.75,1],[0.5,1],[0.25,1],[0,1],[0,0.75],[0,0.5],[0,0.25]];outlineConnect=0;gradientColor=none;html=1;whiteSpace=wrap;fontSize=12;fontStyle=0;container=1;pointerEvents=0;collapsible=0;recursiveResize=0;grIcon=mxgraph.aws4.group_aws_step_functions_workflow;strokeColor=#CD2264;fillColor=none;verticalAlign=top;align=left;spacingLeft=30;fontColor=#CD2264;dashed=0;" parent="2MBpw54hLFLi0oUYaQmh-8" vertex="1">
          <mxGeometry x="20" y="50" width="222.5" height="335" as="geometry" />
        </mxCell>
        <mxCell id="2MBpw54hLFLi0oUYaQmh-61" value="&lt;span style=&quot;font-size: 18px;&quot;&gt;&lt;b&gt;Database&lt;/b&gt;&lt;/span&gt;" style="text;strokeColor=none;align=center;fillColor=none;html=1;verticalAlign=middle;whiteSpace=wrap;rounded=0;" parent="2MBpw54hLFLi0oUYaQmh-8" vertex="1">
          <mxGeometry x="120" width="100" height="30" as="geometry" />
        </mxCell>
        <mxCell id="ucJ11xXuO4QCmthSA1vi-4" value="" style="rounded=0;whiteSpace=wrap;html=1;dashed=1;pointerEvents=0;strokeColor=light-dark(#000000, #ff89c2);align=left;verticalAlign=top;spacingLeft=30;fontFamily=Helvetica;fontSize=12;fontColor=#CD2264;fontStyle=0;fillColor=none;gradientColor=none;dashPattern=8 8;" vertex="1" parent="e6ng4XpAjZzhfiE_HAUn-4">
          <mxGeometry x="353" y="38" width="540" height="414" as="geometry" />
        </mxCell>
        <mxCell id="2MBpw54hLFLi0oUYaQmh-17" value="EKS node" style="points=[[0,0],[0.25,0],[0.5,0],[0.75,0],[1,0],[1,0.25],[1,0.5],[1,0.75],[1,1],[0.75,1],[0.5,1],[0.25,1],[0,1],[0,0.75],[0,0.5],[0,0.25]];outlineConnect=0;gradientColor=none;html=1;whiteSpace=wrap;fontSize=12;fontStyle=0;container=1;pointerEvents=0;collapsible=0;recursiveResize=0;grIcon=mxgraph.aws4.group_aws_step_functions_workflow;strokeColor=#CD2264;fillColor=none;verticalAlign=top;align=left;spacingLeft=30;fontColor=#CD2264;dashed=0;" parent="e6ng4XpAjZzhfiE_HAUn-4" vertex="1">
          <mxGeometry x="379" y="79" width="490" height="355" as="geometry" />
        </mxCell>
        <mxCell id="2MBpw54hLFLi0oUYaQmh-39" value="pod" style="swimlane;" parent="2MBpw54hLFLi0oUYaQmh-17" vertex="1">
          <mxGeometry x="50" y="165" width="70" height="80" as="geometry" />
        </mxCell>
        <mxCell id="2MBpw54hLFLi0oUYaQmh-40" value="Product catalog service" style="text;strokeColor=none;align=center;fillColor=none;html=1;verticalAlign=middle;whiteSpace=wrap;rounded=0;" parent="2MBpw54hLFLi0oUYaQmh-39" vertex="1">
          <mxGeometry y="20" width="70" height="60" as="geometry" />
        </mxCell>
        <mxCell id="2MBpw54hLFLi0oUYaQmh-41" value="pod" style="swimlane;" parent="2MBpw54hLFLi0oUYaQmh-17" vertex="1">
          <mxGeometry x="50" y="90" width="80" height="60" as="geometry">
            <mxRectangle x="10" y="70" width="90" height="30" as="alternateBounds" />
          </mxGeometry>
        </mxCell>
        <mxCell id="2MBpw54hLFLi0oUYaQmh-42" value="Cart service&amp;nbsp;" style="text;strokeColor=none;align=center;fillColor=none;html=1;verticalAlign=middle;whiteSpace=wrap;rounded=0;" parent="2MBpw54hLFLi0oUYaQmh-41" vertex="1">
          <mxGeometry y="20" width="80" height="40" as="geometry" />
        </mxCell>
        <mxCell id="2MBpw54hLFLi0oUYaQmh-51" value="pod" style="swimlane;" parent="2MBpw54hLFLi0oUYaQmh-17" vertex="1">
          <mxGeometry x="170" y="250" width="110" height="60" as="geometry" />
        </mxCell>
        <mxCell id="2MBpw54hLFLi0oUYaQmh-52" value="Recommendation service" style="text;strokeColor=none;align=center;fillColor=none;html=1;verticalAlign=middle;whiteSpace=wrap;rounded=0;" parent="2MBpw54hLFLi0oUYaQmh-51" vertex="1">
          <mxGeometry y="25" width="110" height="35" as="geometry" />
        </mxCell>
        <mxCell id="2MBpw54hLFLi0oUYaQmh-53" value="pod" style="swimlane;" parent="2MBpw54hLFLi0oUYaQmh-17" vertex="1">
          <mxGeometry x="360" y="90" width="60" height="60" as="geometry">
            <mxRectangle x="10" y="70" width="90" height="30" as="alternateBounds" />
          </mxGeometry>
        </mxCell>
        <mxCell id="2MBpw54hLFLi0oUYaQmh-54" value="checkout service" style="text;strokeColor=none;align=center;fillColor=none;html=1;verticalAlign=middle;whiteSpace=wrap;rounded=0;" parent="2MBpw54hLFLi0oUYaQmh-53" vertex="1">
          <mxGeometry y="20" width="60" height="40" as="geometry" />
        </mxCell>
        <mxCell id="2MBpw54hLFLi0oUYaQmh-56" value="pod" style="swimlane;" parent="2MBpw54hLFLi0oUYaQmh-17" vertex="1">
          <mxGeometry x="360" y="165" width="60" height="60" as="geometry">
            <mxRectangle x="10" y="70" width="90" height="30" as="alternateBounds" />
          </mxGeometry>
        </mxCell>
        <mxCell id="2MBpw54hLFLi0oUYaQmh-57" value="adservice" style="text;strokeColor=none;align=center;fillColor=none;html=1;verticalAlign=middle;whiteSpace=wrap;rounded=0;" parent="2MBpw54hLFLi0oUYaQmh-56" vertex="1">
          <mxGeometry y="20" width="60" height="40" as="geometry" />
        </mxCell>
        <mxCell id="2MBpw54hLFLi0oUYaQmh-49" value="pod" style="swimlane;" parent="2MBpw54hLFLi0oUYaQmh-17" vertex="1">
          <mxGeometry x="250" y="90" width="60" height="60" as="geometry">
            <mxRectangle x="10" y="70" width="90" height="30" as="alternateBounds" />
          </mxGeometry>
        </mxCell>
        <mxCell id="2MBpw54hLFLi0oUYaQmh-50" value="shipping service" style="text;strokeColor=none;align=center;fillColor=none;html=1;verticalAlign=middle;whiteSpace=wrap;rounded=0;" parent="2MBpw54hLFLi0oUYaQmh-49" vertex="1">
          <mxGeometry y="20" width="60" height="40" as="geometry" />
        </mxCell>
        <mxCell id="2MBpw54hLFLi0oUYaQmh-47" value="pod" style="swimlane;" parent="2MBpw54hLFLi0oUYaQmh-17" vertex="1">
          <mxGeometry x="250" y="165" width="60" height="60" as="geometry" />
        </mxCell>
        <mxCell id="2MBpw54hLFLi0oUYaQmh-48" value="email service" style="text;strokeColor=none;align=center;fillColor=none;html=1;verticalAlign=middle;whiteSpace=wrap;rounded=0;" parent="2MBpw54hLFLi0oUYaQmh-47" vertex="1">
          <mxGeometry y="20" width="60" height="40" as="geometry" />
        </mxCell>
        <mxCell id="2MBpw54hLFLi0oUYaQmh-45" value="pod" style="swimlane;" parent="2MBpw54hLFLi0oUYaQmh-17" vertex="1">
          <mxGeometry x="150" y="90" width="60" height="60" as="geometry">
            <mxRectangle x="10" y="70" width="90" height="30" as="alternateBounds" />
          </mxGeometry>
        </mxCell>
        <mxCell id="2MBpw54hLFLi0oUYaQmh-46" value="currency service" style="text;strokeColor=none;align=center;fillColor=none;html=1;verticalAlign=middle;whiteSpace=wrap;rounded=0;" parent="2MBpw54hLFLi0oUYaQmh-45" vertex="1">
          <mxGeometry y="20" width="60" height="40" as="geometry" />
        </mxCell>
        <mxCell id="2MBpw54hLFLi0oUYaQmh-43" value="pod" style="swimlane;" parent="2MBpw54hLFLi0oUYaQmh-17" vertex="1">
          <mxGeometry x="150" y="165" width="60" height="60" as="geometry" />
        </mxCell>
        <mxCell id="2MBpw54hLFLi0oUYaQmh-44" value="payment service" style="text;strokeColor=none;align=center;fillColor=none;html=1;verticalAlign=middle;whiteSpace=wrap;rounded=0;" parent="2MBpw54hLFLi0oUYaQmh-43" vertex="1">
          <mxGeometry y="20" width="60" height="40" as="geometry" />
        </mxCell>
        <mxCell id="e6ng4XpAjZzhfiE_HAUn-1" value="EC2 instance" style="points=[[0,0],[0.25,0],[0.5,0],[0.75,0],[1,0],[1,0.25],[1,0.5],[1,0.75],[1,1],[0.75,1],[0.5,1],[0.25,1],[0,1],[0,0.75],[0,0.5],[0,0.25]];outlineConnect=0;gradientColor=none;html=1;whiteSpace=wrap;fontSize=12;fontStyle=0;container=1;pointerEvents=0;collapsible=0;recursiveResize=0;shape=mxgraph.aws4.group;grIcon=mxgraph.aws4.group_ec2_instance_contents;strokeColor=#D86613;fillColor=none;verticalAlign=top;align=left;spacingLeft=30;fontColor=#D86613;dashed=0;" parent="2MBpw54hLFLi0oUYaQmh-17" vertex="1">
          <mxGeometry x="25" y="40" width="440" height="280" as="geometry" />
        </mxCell>
        <mxCell id="ucJ11xXuO4QCmthSA1vi-5" value="" style="rounded=0;whiteSpace=wrap;html=1;dashed=1;pointerEvents=0;strokeColor=light-dark(#000000, #ff89c2);align=left;verticalAlign=top;spacingLeft=30;fontFamily=Helvetica;fontSize=12;fontColor=#CD2264;fontStyle=0;fillColor=none;gradientColor=none;dashPattern=8 8;" vertex="1" parent="e6ng4XpAjZzhfiE_HAUn-4">
          <mxGeometry x="939" y="39" width="260" height="415" as="geometry" />
        </mxCell>
      </root>
    </mxGraphModel>
  </diagram>
  <diagram id="_LujmzwwoTT_gtMI6DPB" name="Page-2">
    <mxGraphModel dx="1281" dy="527" grid="1" gridSize="10" guides="1" tooltips="1" connect="1" arrows="1" fold="1" page="1" pageScale="1" pageWidth="850" pageHeight="1100" math="0" shadow="0">
      <root>
        <mxCell id="0" />
        <mxCell id="1" parent="0" />
      </root>
    </mxGraphModel>
  </diagram>
</mxfile>
